<?xml version="1.0" encoding="UTF-8" standalone="no"?><!DOCTYPE svg PUBLIC "-//W3C//DTD SVG 1.1//EN" "http://www.w3.org/Graphics/SVG/1.1/DTD/svg11.dtd"><svg width="100%" height="100%" viewBox="0 0 53 54" version="1.1" xmlns="http://www.w3.org/2000/svg" xmlns:xlink="http://www.w3.org/1999/xlink" xml:space="preserve" style="fill-rule:evenodd;clip-rule:evenodd;stroke-linecap:round;stroke-linejoin:round;stroke-miterlimit:1.5;"><g><path d="M31.343,9.779c9.475,2.539 15.107,12.293 12.568,21.769c-2.539,9.475 -12.293,15.107 -21.769,12.568c-9.475,-2.539 -15.107,-12.293 -12.568,-21.769c2.539,-9.475 12.293,-15.107 21.769,-12.568Z" style="fill:none;stroke:#d55;stroke-width:4px;"/><path d="M28.813,19.22c4.265,1.143 6.799,5.533 5.657,9.798c-1.143,4.265 -5.533,6.799 -9.798,5.657c-4.265,-1.143 -6.8,-5.533 -5.657,-9.798c1.143,-4.265 5.533,-6.8 9.798,-5.657Z" style="fill:none;stroke:#d55;stroke-width:4px;"/><g><path d="M44.669,24.85l6.254,1.676" style="fill:none;stroke:#d55;stroke-width:4px;"/><path d="M44.076,31.592l5.122,1.372" style="fill:none;stroke:#d55;stroke-width:4px;"/><path d="M41.219,37.727l6.254,1.676" style="fill:none;stroke:#d55;stroke-width:4px;"/></g><g><path d="M28.839,44.874l-1.676,6.254" style="fill:none;stroke:#d55;stroke-width:4px;"/><path d="M22.098,44.281l-1.373,5.122" style="fill:none;stroke:#d55;stroke-width:4px;"/><path d="M15.963,41.424l-1.676,6.254" style="fill:none;stroke:#d55;stroke-width:4px;"/></g><g><path d="M8.816,29.044l-6.255,-1.676" style="fill:none;stroke:#d55;stroke-width:4px;"/><path d="M9.409,22.303l-5.123,-1.373" style="fill:none;stroke:#d55;stroke-width:4px;"/><path d="M12.266,16.168l-6.254,-1.676" style="fill:none;stroke:#d55;stroke-width:4px;"/></g><g><path d="M24.645,9.021l1.676,-6.255" style="fill:none;stroke:#d55;stroke-width:4px;"/><path d="M31.387,9.614l1.372,-5.123" style="fill:none;stroke:#d55;stroke-width:4px;"/><path d="M37.522,12.471l1.676,-6.254" style="fill:none;stroke:#d55;stroke-width:4px;"/></g></g></svg>