<svg width="22" height="24" viewBox="0 0 22 24" version="1.1" xmlns="http://www.w3.org/2000/svg" xmlns:xlink="http://www.w3.org/1999/xlink">
<title>Profile</title>
<desc>Created using Figma</desc>
<g id="Canvas" transform="translate(-290 -606)">
<g id="Profile">
<g id="Ellipse 4" opacity="0.54">
<mask id="mask0_outline_ins">
<use xlink:href="#path0_fill" fill="white" transform="translate(294 606)"/>
</mask>
<g mask="url(#mask0_outline_ins)">
<use xlink:href="#path1_stroke_2x" transform="translate(294 606)" fill="#6C647B"/>
</g>
</g>
<g id="Subtract" opacity="0.54">
<use xlink:href="#path2_fill" transform="translate(290.75 623)" fill="#6C647B"/>
</g>
</g>
</g>
<defs>
<path id="path0_fill" d="M 14 7C 14 10.866 10.866 14 7 14C 3.13401 14 0 10.866 0 7C 0 3.13401 3.13401 0 7 0C 10.866 0 14 3.13401 14 7Z"/>
<path id="path1_stroke_2x" d="M 12 7C 12 9.76142 9.76142 12 7 12L 7 16C 11.9706 16 16 11.9706 16 7L 12 7ZM 7 12C 4.23858 12 2 9.76142 2 7L -2 7C -2 11.9706 2.02944 16 7 16L 7 12ZM 2 7C 2 4.23858 4.23858 2 7 2L 7 -2C 2.02944 -2 -2 2.02944 -2 7L 2 7ZM 7 2C 9.76142 2 12 4.23858 12 7L 16 7C 16 2.02944 11.9706 -2 7 -2L 7 2Z"/>
<path id="path2_fill" fill-rule="evenodd" d="M 18.3146 7C 16.8419 4.03656 13.7838 2 10.2501 2C 6.7164 2 3.65836 4.03656 2.18564 7L 0 7C 1.60013 2.90265 5.58615 0 10.2501 0C 14.9141 0 18.9001 2.90265 20.5002 7L 18.3146 7Z"/>
</defs>
</svg>
